<?xml version="1.0" standalone="no"?>
<!DOCTYPE svg PUBLIC "-//W3C//DTD SVG 20010904//EN"
 "http://www.w3.org/TR/2001/REC-SVG-20010904/DTD/svg10.dtd">
<svg version="1.0" xmlns="http://www.w3.org/2000/svg"
 width="226.000000pt" height="226.000000pt" viewBox="0 0 226.000000 226.000000"
 preserveAspectRatio="xMidYMid meet">
<metadata>
Created by potrace 1.14, written by Peter Selinger 2001-2017
</metadata>
<g transform="translate(0.000000,226.000000) scale(0.100000,-0.100000)"
fill="#000000" stroke="none">
<path d="M1266 2218 c-9 -49 -47 -78 -162 -122 -196 -74 -293 -145 -343 -248
-31 -65 -46 -128 -30 -128 5 0 9 4 9 10 0 16 69 87 105 110 43 27 100 43 265
75 207 40 251 67 252 155 1 54 -7 59 -28 18 -30 -58 -86 -87 -232 -118 -57
-12 -122 -28 -144 -36 -47 -16 -48 -16 -48 -6 0 12 85 51 195 89 55 19 110 41
123 49 51 33 75 111 53 169 -7 16 -9 13 -15 -17z"/>
<path d="M1257 1919 c-38 -9 -122 -48 -115 -53 1 -2 26 -1 53 3 28 4 118 6
201 6 84 0 150 3 148 7 -3 4 -34 17 -70 28 -69 21 -152 24 -217 9z"/>
<path d="M1400 1842 c-14 -1 -44 -5 -68 -8 l-43 -5 98 -49 c155 -76 245 -142
377 -275 54 -55 53 -52 -11 46 -56 86 -132 157 -215 199 -38 19 -68 38 -68 42
0 9 58 0 145 -22 59 -16 67 -16 50 -3 -60 46 -191 84 -265 75z"/>
<path d="M491 1684 c10 -55 34 -106 60 -130 22 -20 25 -12 5 19 -19 31 -28 75
-16 82 14 9 70 -49 70 -72 1 -15 3 -13 14 6 24 43 3 77 -69 111 -35 16 -65 30
-68 30 -2 0 -1 -21 4 -46z"/>
<path d="M848 1678 c-3 -66 2 -93 19 -105 25 -19 35 -16 23 7 -6 12 -10 33 -8
48 l3 27 23 -32 c13 -18 24 -42 25 -52 2 -30 17 -14 17 18 0 28 -70 121 -91
121 -5 0 -10 -15 -11 -32z"/>
<path d="M699 1653 c-72 -45 -82 -160 -19 -223 45 -45 99 -57 295 -65 168 -7
224 -23 268 -75 15 -17 27 -36 27 -42 0 -6 3 -9 6 -5 11 11 -16 74 -44 99 -49
45 -120 64 -316 83 -144 14 -204 49 -213 125 -4 36 -1 50 15 70 l21 25 -6 -37
c-7 -47 13 -81 65 -107 36 -19 61 -24 160 -36 24 -3 55 -8 69 -11 16 -4 24 -3
20 3 -6 9 -94 39 -182 62 -79 21 -116 83 -74 127 l22 24 -44 0 c-24 0 -56 -8
-70 -17z"/>
<path d="M557 1361 c-34 -86 -34 -103 1 -155 71 -105 73 -117 60 -399 -4 -92
4 -118 17 -52 40 210 45 328 13 382 -71 124 -80 144 -73 171 8 32 17 122 12
122 -2 0 -15 -31 -30 -69z"/>
<path d="M991 1294 c-1 -22 -35 -56 -93 -95 -21 -13 -39 -31 -39 -39 -1 -8 -3
-22 -4 -30 -4 -44 43 -47 84 -5 31 31 20 45 -18 22 -35 -21 -42 -21 -35 -3 3
8 23 27 45 41 21 15 36 32 32 38 -3 6 -1 7 5 3 15 -9 35 39 29 68 l-4 21 -2
-21z"/>
<path d="M1121 1184 c-11 -43 -41 -76 -127 -142 -70 -55 -129 -171 -128 -252
0 -30 8 -74 17 -98 15 -37 15 -47 3 -75 -22 -53 -51 -71 -114 -74 -47 -1 -62
2 -90 24 -32 24 -33 24 -22 4 6 -12 25 -30 41 -40 28 -17 47 -19 130 -12 23 1
83 59 102 97 18 34 17 51 -5 105 -8 18 -13 47 -11 64 7 51 65 145 112 184 67
54 101 90 112 118 11 29 11 90 0 118 -7 17 -10 14 -20 -21z"/>
<path d="M1333 1058 c-88 -92 -125 -274 -85 -413 25 -84 91 -178 155 -220 32
-21 47 -13 25 12 -26 30 -97 185 -114 248 -31 122 -13 270 46 373 11 17 16 32
12 32 -5 0 -22 -15 -39 -32z"/>
<path d="M764 626 c-31 -23 -7 -38 39 -24 29 9 34 14 26 25 -15 17 -40 17 -65
-1z"/>
<path d="M1550 477 c-49 -11 -102 -62 -139 -130 -35 -66 -129 -333 -106 -303
8 11 15 24 15 28 0 5 5 14 10 21 6 7 32 44 58 84 54 82 109 149 193 233 33 32
59 60 59 63 0 10 -56 12 -90 4z"/>
</g>
</svg>
